<?xml version="1.0" encoding="UTF-8" standalone="no"?>
<!-- Created with Inkscape (http://www.inkscape.org/) -->

<svg
   width="210mm"
   height="297mm"
   viewBox="0 0 210 297"
   version="1.1"
   id="svg5"
   inkscape:version="1.2 (dc2aedaf03, 2022-05-15)"
   sodipodi:docname="grape.svg"
   xmlns:inkscape="http://www.inkscape.org/namespaces/inkscape"
   xmlns:sodipodi="http://sodipodi.sourceforge.net/DTD/sodipodi-0.dtd"
   xmlns:xlink="http://www.w3.org/1999/xlink"
   xmlns="http://www.w3.org/2000/svg"
   xmlns:svg="http://www.w3.org/2000/svg">
  <sodipodi:namedview
     id="namedview7"
     pagecolor="#ffffff"
     bordercolor="#000000"
     borderopacity="0.25"
     inkscape:showpageshadow="2"
     inkscape:pageopacity="0.0"
     inkscape:pagecheckerboard="0"
     inkscape:deskcolor="#d1d1d1"
     inkscape:document-units="mm"
     showgrid="false"
     inkscape:zoom="2.1089995"
     inkscape:cx="236.84216"
     inkscape:cy="489.8057"
     inkscape:window-width="1920"
     inkscape:window-height="1017"
     inkscape:window-x="-8"
     inkscape:window-y="-8"
     inkscape:window-maximized="1"
     inkscape:current-layer="layer1" />
  <defs
     id="defs2">
    <linearGradient
       inkscape:collect="always"
       id="linearGradient6893">
      <stop
         style="stop-color:#8ddc2b;stop-opacity:1;"
         offset="0"
         id="stop6889" />
      <stop
         style="stop-color:#568919;stop-opacity:1;"
         offset="1"
         id="stop6891" />
    </linearGradient>
    <linearGradient
       inkscape:collect="always"
       id="linearGradient5077">
      <stop
         style="stop-color:#d79227;stop-opacity:1;"
         offset="0"
         id="stop5073" />
      <stop
         style="stop-color:#cc8c26;stop-opacity:1;"
         offset="1"
         id="stop5075" />
    </linearGradient>
    <linearGradient
       inkscape:collect="always"
       id="linearGradient1704">
      <stop
         style="stop-color:#9a0ffe;stop-opacity:1;"
         offset="0.22309712"
         id="stop1700" />
      <stop
         style="stop-color:#6301aa;stop-opacity:1;"
         offset="1"
         id="stop1702" />
    </linearGradient>
    <radialGradient
       inkscape:collect="always"
       xlink:href="#linearGradient1704"
       id="radialGradient1706-7"
       cx="73.723572"
       cy="133.03021"
       fx="73.723572"
       fy="133.03021"
       r="4.3272686"
       gradientUnits="userSpaceOnUse"
       gradientTransform="matrix(0.7541823,2.2324819,-0.94739971,0.32005279,153.68717,-76.795169)" />
    <radialGradient
       inkscape:collect="always"
       xlink:href="#linearGradient1704"
       id="radialGradient1706-3"
       cx="73.723572"
       cy="133.03021"
       fx="73.723572"
       fy="133.03021"
       r="4.3272686"
       gradientUnits="userSpaceOnUse"
       gradientTransform="matrix(0.7541823,2.2324819,-0.94739971,0.32005279,148.69329,-74.583043)" />
    <radialGradient
       inkscape:collect="always"
       xlink:href="#linearGradient1704"
       id="radialGradient1706-5"
       cx="73.723572"
       cy="133.03021"
       fx="73.723572"
       fy="133.03021"
       r="4.3272686"
       gradientUnits="userSpaceOnUse"
       gradientTransform="matrix(0.7541823,2.2324819,-0.94739971,0.32005279,159.33964,-73.815897)" />
    <radialGradient
       inkscape:collect="always"
       xlink:href="#linearGradient1704"
       id="radialGradient1706-4"
       cx="73.723572"
       cy="133.03021"
       fx="73.723572"
       fy="133.03021"
       r="4.3272686"
       gradientUnits="userSpaceOnUse"
       gradientTransform="matrix(0.7541823,2.2324819,-0.94739971,0.32005279,154.2649,-71.841296)" />
    <radialGradient
       inkscape:collect="always"
       xlink:href="#linearGradient1704"
       id="radialGradient1706-48"
       cx="73.723572"
       cy="133.03021"
       fx="73.723572"
       fy="133.03021"
       r="4.3272686"
       gradientUnits="userSpaceOnUse"
       gradientTransform="matrix(0.7541823,2.2324819,-0.94739971,0.32005279,148.39524,-70.135344)" />
    <radialGradient
       inkscape:collect="always"
       xlink:href="#linearGradient1704"
       id="radialGradient1706-45"
       cx="73.723572"
       cy="133.03021"
       fx="73.723572"
       fy="133.03021"
       r="4.3272686"
       gradientUnits="userSpaceOnUse"
       gradientTransform="matrix(0.7541823,2.2324819,-0.94739971,0.32005279,158.63427,-67.568506)" />
    <radialGradient
       inkscape:collect="always"
       xlink:href="#linearGradient1704"
       id="radialGradient1706-40"
       cx="73.723572"
       cy="133.03021"
       fx="73.723572"
       fy="133.03021"
       r="4.3272686"
       gradientUnits="userSpaceOnUse"
       gradientTransform="matrix(0.7541823,2.2324819,-0.94739971,0.32005279,163.08661,-69.777195)" />
    <radialGradient
       inkscape:collect="always"
       xlink:href="#linearGradient1704"
       id="radialGradient1706-8"
       cx="73.723572"
       cy="133.03021"
       fx="73.723572"
       fy="133.03021"
       r="4.3272686"
       gradientUnits="userSpaceOnUse"
       gradientTransform="matrix(0.7541823,2.2324819,-0.94739971,0.32005279,153.75111,-65.472948)" />
    <radialGradient
       inkscape:collect="always"
       xlink:href="#linearGradient1704"
       id="radialGradient1706-0"
       cx="73.723572"
       cy="133.03021"
       fx="73.723572"
       fy="133.03021"
       r="4.3272686"
       gradientUnits="userSpaceOnUse"
       gradientTransform="matrix(0.7541823,2.2324819,-0.94739971,0.32005279,146.56983,-65.546398)" />
    <radialGradient
       inkscape:collect="always"
       xlink:href="#linearGradient1704"
       id="radialGradient1706-9"
       cx="73.723572"
       cy="133.03021"
       fx="73.723572"
       fy="133.03021"
       r="4.3272686"
       gradientUnits="userSpaceOnUse"
       gradientTransform="matrix(0.7541823,2.2324819,-0.94739971,0.32005279,150.23999,-62.356177)" />
    <radialGradient
       inkscape:collect="always"
       xlink:href="#linearGradient1704"
       id="radialGradient1706-94"
       cx="73.723572"
       cy="133.03021"
       fx="73.723572"
       fy="133.03021"
       r="4.3272686"
       gradientUnits="userSpaceOnUse"
       gradientTransform="matrix(0.7541823,2.2324819,-0.94739971,0.32005279,146.08267,-61.040424)" />
    <radialGradient
       inkscape:collect="always"
       xlink:href="#linearGradient1704"
       id="radialGradient1706-76"
       cx="73.723572"
       cy="133.03021"
       fx="73.723572"
       fy="133.03021"
       r="4.3272686"
       gradientUnits="userSpaceOnUse"
       gradientTransform="matrix(0.7541823,2.2324819,-0.94739971,0.32005279,156.87175,-64.878038)" />
    <linearGradient
       inkscape:collect="always"
       xlink:href="#linearGradient5077"
       id="linearGradient5079"
       x1="87.504967"
       y1="127.07635"
       x2="89.976379"
       y2="129.60458"
       gradientUnits="userSpaceOnUse"
       gradientTransform="rotate(26.201485,87.075429,139.86165)" />
    <radialGradient
       inkscape:collect="always"
       xlink:href="#linearGradient6893"
       id="radialGradient6895"
       cx="71.050774"
       cy="114.21378"
       fx="71.050774"
       fy="114.21378"
       r="6.6546315"
       gradientTransform="matrix(1.3117571,-0.16595138,0.11192689,0.88472239,-18.022702,38.136774)"
       gradientUnits="userSpaceOnUse" />
  </defs>
  <g
     inkscape:label="Слой 1"
     inkscape:groupmode="layer"
     id="layer1">
    <g
       id="g7637"
       inkscape:export-filename="iizha.svg"
       inkscape:export-xdpi="391.53601"
       inkscape:export-ydpi="391.53601">
      <path
         id="rect2314"
         style="fill:url(#linearGradient5079);fill-opacity:1;stroke:#000000;stroke-width:0.225;stroke-linecap:square"
         d="m 98.853218,126.7614 3.298762,0.93122 c -1.52412,0.51881 -3.985171,1.14156 -5.818721,2.08007 -2.881346,1.47482 -5.332561,3.67053 -7.998843,5.5058 l -1.934887,-1.69366 z"
         sodipodi:nodetypes="ccaccc" />
      <path
         id="path184-7"
         style="fill:url(#radialGradient1706-76);stroke:#000000;stroke-width:0.225;stroke-linecap:square"
         d="m 91.389829,147.95273 a 4.0772691,4.0772691 0 0 1 -5.458546,1.85808 4.0772691,4.0772691 0 0 1 -1.858089,-5.45855 4.0772691,4.0772691 0 0 1 5.458551,-1.85808 4.0772691,4.0772691 0 0 1 1.858084,5.45855 z" />
      <path
         id="path184-3"
         style="fill:url(#radialGradient1706-7);stroke:#000000;stroke-width:0.225;stroke-linecap:square"
         d="m 88.205254,136.0356 a 4.0772691,4.0772691 0 0 1 -5.458546,1.85808 4.0772691,4.0772691 0 0 1 -1.858088,-5.45854 4.0772691,4.0772691 0 0 1 5.458551,-1.85809 4.0772691,4.0772691 0 0 1 1.858083,5.45855 z" />
      <path
         id="path184-8"
         style="fill:url(#radialGradient1706-3);stroke:#000000;stroke-width:0.225;stroke-linecap:square"
         d="m 83.21137,138.24772 a 4.0772691,4.0772691 0 0 1 -5.458546,1.85808 4.0772691,4.0772691 0 0 1 -1.858088,-5.45855 4.0772691,4.0772691 0 0 1 5.458551,-1.85808 4.0772691,4.0772691 0 0 1 1.858083,5.45855 z" />
      <path
         id="path184-9"
         style="fill:url(#radialGradient1706-5);stroke:#000000;stroke-width:0.225;stroke-linecap:square"
         d="m 93.85772,139.01488 a 4.0772691,4.0772691 0 0 1 -5.458546,1.85808 4.0772691,4.0772691 0 0 1 -1.858088,-5.45854 4.0772691,4.0772691 0 0 1 5.458551,-1.85809 4.0772691,4.0772691 0 0 1 1.858083,5.45855 z" />
      <path
         id="path184-52"
         style="fill:url(#radialGradient1706-40);stroke:#000000;stroke-width:0.225;stroke-linecap:square"
         d="m 97.604694,143.05358 a 4.0772691,4.0772691 0 0 1 -5.458546,1.85807 4.0772691,4.0772691 0 0 1 -1.858089,-5.45854 4.0772691,4.0772691 0 0 1 5.458551,-1.85808 4.0772691,4.0772691 0 0 1 1.858084,5.45855 z" />
      <path
         id="path184-36"
         style="fill:url(#radialGradient1706-4);stroke:#000000;stroke-width:0.225;stroke-linecap:square"
         d="m 88.782985,140.98947 a 4.0772691,4.0772691 0 0 1 -5.458546,1.85808 4.0772691,4.0772691 0 0 1 -1.858088,-5.45854 4.0772691,4.0772691 0 0 1 5.45855,-1.85809 4.0772691,4.0772691 0 0 1 1.858084,5.45855 z" />
      <path
         id="path184-5"
         style="fill:url(#radialGradient1706-48);stroke:#000000;stroke-width:0.225;stroke-linecap:square"
         d="m 82.913316,142.69543 a 4.0772691,4.0772691 0 0 1 -5.458546,1.85807 4.0772691,4.0772691 0 0 1 -1.858088,-5.45854 4.0772691,4.0772691 0 0 1 5.45855,-1.85809 4.0772691,4.0772691 0 0 1 1.858084,5.45856 z" />
      <path
         id="path184-57"
         style="fill:url(#radialGradient1706-45);stroke:#000000;stroke-width:0.225;stroke-linecap:square"
         d="m 93.152346,145.26227 a 4.0772691,4.0772691 0 0 1 -5.458546,1.85807 4.0772691,4.0772691 0 0 1 -1.858088,-5.45854 4.0772691,4.0772691 0 0 1 5.45855,-1.85809 4.0772691,4.0772691 0 0 1 1.858084,5.45856 z" />
      <path
         id="path184-523"
         style="fill:url(#radialGradient1706-8);stroke:#000000;stroke-width:0.225;stroke-linecap:square"
         d="m 88.269186,147.35782 a 4.0772691,4.0772691 0 0 1 -5.458547,1.85808 4.0772691,4.0772691 0 0 1 -1.858088,-5.45854 4.0772691,4.0772691 0 0 1 5.458551,-1.85809 4.0772691,4.0772691 0 0 1 1.858084,5.45855 z" />
      <path
         id="path184-86"
         style="fill:url(#radialGradient1706-0);stroke:#000000;stroke-width:0.225;stroke-linecap:square"
         d="m 81.08791,147.28437 a 4.0772691,4.0772691 0 0 1 -5.458546,1.85808 4.0772691,4.0772691 0 0 1 -1.858088,-5.45854 4.0772691,4.0772691 0 0 1 5.458551,-1.85809 4.0772691,4.0772691 0 0 1 1.858083,5.45855 z" />
      <path
         id="path184-1"
         style="fill:url(#radialGradient1706-9);stroke:#000000;stroke-width:0.225;stroke-linecap:square"
         d="m 84.758066,150.4746 a 4.0772691,4.0772691 0 0 1 -5.458547,1.85808 4.0772691,4.0772691 0 0 1 -1.858088,-5.45855 4.0772691,4.0772691 0 0 1 5.458551,-1.85808 4.0772691,4.0772691 0 0 1 1.858084,5.45855 z" />
      <path
         id="path184-0"
         style="fill:url(#radialGradient1706-94);stroke:#000000;stroke-width:0.225;stroke-linecap:square"
         d="m 80.600756,151.79034 a 4.0772691,4.0772691 0 0 1 -5.458546,1.85808 4.0772691,4.0772691 0 0 1 -1.858088,-5.45854 4.0772691,4.0772691 0 0 1 5.45855,-1.85809 4.0772691,4.0772691 0 0 1 1.858084,5.45855 z" />
      <path
         style="fill:url(#radialGradient6895);fill-opacity:1;stroke:#000000;stroke-width:0.225;stroke-linecap:square;stroke-dasharray:none;stroke-opacity:1"
         d="m 86.098779,122.5236 c 0,0 2.296544,2.14723 2.624348,3.31836 -0.774003,0.36645 -2.81835,0.10101 -2.81835,0.10101 0,0 2.899516,1.3078 3.674094,2.0618 -0.564869,0.94079 -2.54247,1.8664 -2.54247,1.8664 0,0 3.389418,-0.54246 5.090734,-0.45364 0.988598,0.0516 2.914558,0.57018 2.914558,0.57018 0,0 -1.019745,-1.79177 -1.229127,-2.7845 -0.309219,-1.46615 -1.19e-4,-4.4952 -1.19e-4,-4.4952 0,0 -0.685828,1.70741 -1.527425,2.84491 -0.816109,-1.10593 -2.436096,-4.53941 -2.436096,-4.53941 0,0 0.440528,2.40504 0.113178,3.48285 -1.347037,-0.009 -3.863325,-1.97276 -3.863325,-1.97276 z"
         id="path6835"
         sodipodi:nodetypes="cccccacaccccc" />
    </g>
  </g>
</svg>
