<?xml version="1.0" encoding="UTF-8" standalone="no"?>
<!-- Created with Inkscape (http://www.inkscape.org/) -->

<svg
   width="210mm"
   height="297mm"
   viewBox="0 0 210 297"
   version="1.1"
   id="svg5"
   inkscape:version="1.2 (dc2aedaf03, 2022-05-15)"
   sodipodi:docname="Karastos Emblem.svg"
   xmlns:inkscape="http://www.inkscape.org/namespaces/inkscape"
   xmlns:sodipodi="http://sodipodi.sourceforge.net/DTD/sodipodi-0.dtd"
   xmlns="http://www.w3.org/2000/svg"
   xmlns:svg="http://www.w3.org/2000/svg">
  <sodipodi:namedview
     id="namedview7"
     pagecolor="#ffffff"
     bordercolor="#000000"
     borderopacity="0.25"
     inkscape:showpageshadow="2"
     inkscape:pageopacity="0.0"
     inkscape:pagecheckerboard="0"
     inkscape:deskcolor="#d1d1d1"
     inkscape:document-units="mm"
     showgrid="false"
     inkscape:zoom="2.9825758"
     inkscape:cx="344.83617"
     inkscape:cy="571.98882"
     inkscape:window-width="1920"
     inkscape:window-height="1017"
     inkscape:window-x="-8"
     inkscape:window-y="-8"
     inkscape:window-maximized="1"
     inkscape:current-layer="layer1" />
  <defs
     id="defs2" />
  <g
     inkscape:label="Слой 1"
     inkscape:groupmode="layer"
     id="layer1">
    <path
       style="fill:#000000;fill-opacity:1;stroke:#000000;stroke-width:0.167527;stroke-linecap:square"
       d="m 98.266942,132.95309 -8.109767,4.25784 0.340543,-3.42893 c 0,0 -2.074952,2.71938 -2.446374,4.33712 -0.620897,2.70434 0.51748,8.308 0.51748,8.308 l -3.556838,-2.85385 c 0,0 2.863386,2.99829 4.175015,4.60092 3.630245,4.43566 10.197771,13.8452 10.197771,13.8452 0,0 -5.074975,-8.77569 -6.21128,-13.64091 -0.76473,-3.27428 -1.566204,-6.95975 -0.318699,-10.08216 0.94057,-2.35418 5.412149,-5.34323 5.412149,-5.34323 z"
       id="path188"
       sodipodi:nodetypes="cccaccacaac" />
    <path
       style="fill:#000000;fill-opacity:1;stroke:#000000;stroke-width:0.167527;stroke-linecap:square"
       d="m 103.33867,132.95309 8.10977,4.25784 -0.34054,-3.42893 c 0,0 2.07495,2.71938 2.44637,4.33712 0.6209,2.70434 -0.51748,8.308 -0.51748,8.308 l 3.55684,-2.85385 c 0,0 -2.86339,2.99829 -4.17502,4.60092 -3.63024,4.43566 -10.19777,13.8452 -10.19777,13.8452 0,0 5.07498,-8.77569 6.21128,-13.64091 0.76473,-3.27428 1.56621,-6.95975 0.3187,-10.08216 -0.94057,-2.35418 -5.41215,-5.34323 -5.41215,-5.34323 z"
       id="path188-9"
       sodipodi:nodetypes="cccaccacaac" />
    <path
       style="fill:#000000;fill-opacity:1;stroke:#000000;stroke-width:0.167527;stroke-linecap:square"
       d="m 101.03224,132.90787 c 0,0 -3.626005,6.54526 -3.962514,10.16695 -0.659611,7.09907 3.962514,21.01869 3.962514,21.01869 0,0 4.09523,-13.94044 3.50388,-21.01869 -0.29844,-3.57216 -3.50388,-10.16695 -3.50388,-10.16695 z"
       id="path444"
       sodipodi:nodetypes="cacac" />
  </g>
</svg>
